<?xml version="1.0" encoding="UTF-8" standalone="no"?>
<svg
   xmlns:dc="http://purl.org/dc/elements/1.1/"
   xmlns:cc="http://creativecommons.org/ns#"
   xmlns:rdf="http://www.w3.org/1999/02/22-rdf-syntax-ns#"
   xmlns:svg="http://www.w3.org/2000/svg"
   xmlns="http://www.w3.org/2000/svg"
   xmlns:sodipodi="http://sodipodi.sourceforge.net/DTD/sodipodi-0.dtd"
   xmlns:inkscape="http://www.inkscape.org/namespaces/inkscape"
   version="1.1"
   id="Placeholder_galaxy"
   x="0px"
   y="0px"
   width="210px"
   height="210px"
   viewBox="0 0 210 210"
   style="background-color:#000"
   inkscape:version="0.48.5 r10040"
   sodipodi:docname="Placeholder_galaxy.svg"
   inkscape:export-filename="/home/negus/Downloads/Placeholder_galaxy16.png"
   inkscape:export-xdpi="6.8571429"
   inkscape:export-ydpi="6.8571429">
  <metadata
     id="metadata3543">
    <rdf:RDF>
      <cc:Work
         rdf:about="">
        <dc:format>image/svg+xml</dc:format>
        <dc:type
           rdf:resource="http://purl.org/dc/dcmitype/StillImage" />
        <dc:title>Placeholder galaxy</dc:title>
      </cc:Work>
    </rdf:RDF>
  </metadata>
  <defs
     id="defs3541" />
  <sodipodi:namedview
     pagecolor="#ffffff"
     bordercolor="#666666"
     borderopacity="1"
     objecttolerance="10"
     gridtolerance="10"
     guidetolerance="10"
     inkscape:pageopacity="0"
     inkscape:pageshadow="2"
     inkscape:window-width="745"
     inkscape:window-height="480"
     id="namedview3539"
     showgrid="false"
     inkscape:zoom="1.1238095"
     inkscape:cx="168.33513"
     inkscape:cy="105"
     inkscape:window-x="762"
     inkscape:window-y="455"
     inkscape:window-maximized="0"
     inkscape:current-layer="Placeholder_galaxy" />
  <title
     id="title3293">Placeholder galaxy</title>
  <circle
     fill="#FFF"
     cx="102.436"
     cy="96.523"
     r="50"
     id="circle3297"
     style="fill:#ff0000" />
  <path
     fill="#FFF"
     d="M151.859,88.633c-0.014,0.161,0.002,0.404-0.006,0.602C151.744,88.68,151.695,88.412,151.859,88.633z"
     id="path3299"
     style="fill:#ff0000" />
  <path
     fill="#FFF"
     d="M152.018,96.523c0.008-2.032-0.218-5.225-0.164-7.288c0.194,0.885,0.565,2.534,0.688,4.064C152.675,94.829,152.553,96.219,152.018,96.523z"
     id="path3301"
     style="fill:#ff0000" />
  <path
     fill="#FFF"
     d="M153.527,87.988c0.041,0.883,0.056,1.766,0.045,2.646C153.096,89.151,153.641,89.366,153.527,87.988z"
     id="path3303"
     style="fill:#ff0000" />
  <path
     fill="#FFF"
     d="M152.677,89.083l-0.411-0.076l0.162-1.42C152.51,88.086,152.605,88.583,152.677,89.083z"
     id="path3305"
     style="fill:#ff0000" />
  <path
     fill="#FFF"
     d="M59.181,78.522c0.249-0.163,0.484-0.228,0.659-0.027L59.181,78.522z"
     id="path3307"
     style="fill:#ff0000" />
  <path
     fill="#FFF"
     d="M55.632,83.239c-0.195,0.478-0.316,0.817-0.414,1.114C55.281,84.001,55.399,83.725,55.632,83.239z"
     id="path3309"
     style="fill:#ff0000" />
  <path
     fill="#FFF"
     d="M61.206,73.93l-0.414,0.892C60.89,74.519,61.021,74.199,61.206,73.93z"
     id="path3311"
     style="fill:#ff0000" />
  <path
     fill="#FFF"
     d="M113.88,49.36c0.853,0.497,1.634,0.988,2.224,1.352C114.285,50.501,114.297,49.858,113.88,49.36z"
     id="path3313"
     style="fill:#ff0000" />
  <path
     fill="#FFF"
     d="M49.903,110.775l0.378,0.182C50.222,111.285,50.126,111.466,49.903,110.775z"
     id="path3315"
     style="fill:#ff0000" />
  <path
     fill="#FFF"
     d="M50.131,83.264c0.187,0.019,0.303,0.111,0.372,0.248c-0.052,0.101-0.097,0.206-0.152,0.3L50.131,83.264z"
     id="path3317"
     style="fill:#ff0000" />
  <path
     fill="#FFF"
     d="M62.686,70.236v-0.064c0.202-0.191,0.41-0.377,0.62-0.56C63.106,70,62.912,70.198,62.686,70.236z"
     id="path3319"
     style="fill:#ff0000" />
  <path
     fill="#FFF"
     d="M52.569,119.415c0.01,0.438-0.029,0.89-0.146,1.326C52.174,119.879,52.286,119.376,52.569,119.415z"
     id="path3321"
     style="fill:#ff0000" />
  <path
     fill="#FFF"
     d="M55.187,84.49c-0.007,0.008-0.009-0.002-0.016,0.006l0.047-0.143L55.187,84.49z"
     id="path3323"
     style="fill:#ff0000" />
  <path
     fill="#FFF"
     d="M53.451,74.735l-0.721,1.268C52.889,75.402,53.194,74.971,53.451,74.735z"
     id="path3325"
     style="fill:#ff0000" />
  <path
     fill="#FFF"
     d="M113.88,49.36l-0.726-0.418C113.521,49.025,113.729,49.184,113.88,49.36z"
     id="path3327"
     style="fill:#ff0000" />
  <path
     fill="#FFF"
     d="M149.643,82.175c-0.24-0.775-0.097-1.025,0.078-1.245C149.759,81.393,149.752,81.813,149.643,82.175z"
     id="path3329"
     style="fill:#ff0000" />
  <path
     fill="#FFF"
     d="M150.327,98.454l0.021-0.316C150.359,98.272,150.348,98.373,150.327,98.454z"
     id="path3331"
     style="fill:#ff0000" />
  <path
     fill="#FFF"
     d="M139.334,125.771c-0.145,0.064-0.297,0.129-0.443,0.146C138.98,125.669,139.188,125.648,139.334,125.771z"
     id="path3333"
     style="fill:#ff0000" />
  <path
     fill="#FFF"
     d="M119.684,148.55c1.979-1.133,4.474-1.14,6.308-1.948l-0.778-0.07c0.646-0.18,1.295-0.36,1.938-0.564l-0.272-0.494c3.084-1.207,6.151-3.93,7.627-3.914l-0.838-0.519c1.076-0.466,2.146-0.965,3.2-1.508c-0.643,0.263-1.299,0.495-1.943,0.729l5.055-4.002c1.61-1.303,2.871-2.447,3.154-2.752l-0.486,0.028c0.307-0.581,0.797-0.81,1.319-1.238l-0.718,0.054c1.967-2.152,2.861-3.815,3.787-5.51c0.91-1.711,1.852-3.46,3.547-6.208c0.671-1.624-0.575,0.802-0.854,0.683c0.1-1.017,1.396-2.854,1.783-3.226c-0.912,0.158-1.839,2.649-1.55,0.558c0.945-1.129-1.051,0.576,0.103-1.631c0.441-0.162,0.875-0.336,1.313-0.514c0.359-1.372-0.613-0.55,0.241-2.576c1.257-2.253,0.049,3.338,1.545-0.504c0.294-0.999,0.058-2.216-0.104-3.607c-0.166-1.398-0.244-2.955,0.342-4.823c-0.043-3.364-1.767,1.473-0.92-2.987c-0.328,0.934-0.67,1.854-1.051,2.755c-0.166-0.774-0.721-0.388-0.259-2.251c0.46-0.546,1.093-1.693,1.202-2.743c-0.542,2.068-0.755,1.11-1,0.156c-0.257-0.966-0.548-1.921-1.157-0.076c0.042-0.464,0.087-0.927,0.112-1.393c-0.046,0.171-0.145,0.211-0.219,0.114c0.007-0.617-0.008-1.233-0.025-1.849c-0.193,1.146-0.471,3.814-1.139,2.53c-0.01-0.875-0.051-1.75-0.105-2.621c-0.57,0.691-0.791-0.259-1.244-0.105c-0.369,2.491-0.922,4.92-1.681,7.253c0.388-0.223,0.751-1.245,1.033-0.805c-0.019,2.012-0.843,1.49-0.769,3.39l0.612-0.711c-0.198,0.111-0.308,0.357-0.276-0.053c-0.162-0.697,0.225-0.913,0.504-0.868c0.453,0.755-0.34,2.554-0.865,2.993c-0.559,2.357,0.855,0.754,0.885,1.316c-1.229,0.962-1.225,3.947-2.252,5.203l0.943-0.682c-0.008,2.058-1.326,3.377-2.022,4.248l0.647-0.156c-1.285,2.287-0.576,4.367-3.207,5.08l0.436-0.043c-0.47,0.994-1.168,2.588-2.249,3.08c0.149,0.149,0.238,0.461,0.005,0.851c-0.917,0.022-1.232,1.237-2.27,2.521c0.873-0.672,1.3,0.189,2.242-0.543c-1.063,2.557-2.33,1.086-3.826,2.575c-0.619,1.218,1.183-0.428,1.631-0.431c-1.346,1.018-2.253,2.549-3.256,3.838c-0.992,1.285-2.068,2.313-3.459,2.184c0.291-0.429,0.563-0.871,0.837-1.306c-1.294,0.476-1.884,0.854-1.654,0.912c0.313-0.289,0.528-0.231,0.748-0.181c-1.379,1.531-2.926,2.09-4.479,2.498c-1.564,0.408-3.139,0.676-4.883,1.621c0.4,0.192,0.971,0.063,1.109,0.313c-1.585,1.056-2.291-0.869-4.798,0.738l0.671,0.187c-0.859,0.54-1.725,0.216-1.63,0.065c0.19,0.736-1.316,1.201-3.083,1.643c-1.77,0.453-3.782,0.863-4.715,1.979c-0.793-0.324-2.242-0.547-3.638-0.688c-1.397-0.142-2.749-0.196-3.392,0.021c-1.876,0.879,1.627,1.037,0.943,1.873c-1.5-0.011-2.239-0.855-4.44-0.74c0.08-0.818,4.325-1.432,0.394-2.182l-0.593,0.405c0.42-0.024,0.992-0.14,1.561,0.001c1.124,0.569-0.729,0.534-1.019,0.727c-1.433-0.207-2.854-0.473-4.255-0.809c-0.151-0.93,2.323-0.324,2.616-0.544c-1.673-0.104-3.564-0.047-5.425-0.209c-1.857-0.155-3.681-0.522-5.074-1.345l0.172,0.42c-1.781-1.049-2.46-0.917-3.051-0.803c-0.575,0.103-1.064,0.178-2.22-1.188c-1.65-0.569,0.129,1.166-2.25,0.002c-0.657-0.356-0.106-0.444,0.062-0.479c-2.628-1.881-1.705,0.052-3.779-2.26l0.016,1.156c-1.342-1.266-2.482-2.822-3.547-4.273c-1.071-1.451-2.071-2.797-3.278-3.713c-0.399,0.649,1.001,1.914,1.207,2.824c-1.118-1.881-2.814-3.648-4.41-5.496c-1.598-1.832-3.093-3.742-3.8-5.547c1.12,0.602,0.307-2.254,2.005-0.544c-0.467,1.031,0.669,1.614,1.331,2.679c0.22-1.432-1.157-2.977-2.381-4.508c-1.234-1.514-2.294-2.996-1.608-3.656l-0.894-0.17c-0.146-0.562-0.186-2.076,0.414-1.276c-0.674-1.15-1.302-2.336-1.881-3.554c-0.124,1.494-0.126,4.838,1.035,5.369c-0.215,1.406-1.184-1.322-1.566,0c0.021-3.069-1.193-1.382-1.958-4.257c0.728,0.45,0.814-0.356,0.835-1.264c0.014-0.909-0.041-1.927,0.228-1.937c-0.458-0.838-0.439-2.965-0.22-3.8c-0.114-0.797-0.516-2.073-0.841-3.505c-0.326-1.429-0.55-3.02-0.396-4.331c-0.316,0.992-0.65,2.604-1.333,2.542c0.287-1.342,0.248-2.761-0.543-3.007c-0.674,2.388-0.144,2.769,0.38,3.044c0.556,0.287,1.115,0.488,0.906,2.621c-0.75,1.146-0.806,2.357-0.591,4.585c-0.72-0.884-0.845-0.399-1.546-0.688c0.656-1.56,0.41-3.297,0.149-5.179c-0.263-1.869-0.538-3.887-0.042-5.677c0.285-0.75,0.733-0.827,1.139-1.138c0.408-0.311,0.762-0.848,1.004-2.473c0.104,0.953,0.251,1.898,0.413,2.833c-0.371-3.089,0.566-0.702,0.975-3.168l-0.703,0.938c0.012-1.546,0.192-2.107,0.756-2.884c-0.379,0.382-0.748,0.774-1.111,1.176c-0.039-0.85,0.087-2.414,0.651-2.338c-0.195-0.251-0.365-0.358-0.525-0.385c0.18-0.137,0.351-0.51,0.508-1.48c-0.215,0.545-0.235,0.966-0.516,0.927c0.984-3.655-0.858-1.087-0.226-3.384c-0.306,0.315-0.413-0.415-0.293-1.28c0.716,0.225,1.436-0.783,2.174-1.912c0.738-1.132,1.511-2.389,2.129-2.782l-0.026,0.005c0.585-0.875,1.188-1.727,1.826-2.548c-0.382,0.502-0.466-0.279-0.188-1.156l-0.061,0.132c0.267-0.986-2.028,0.298-0.192-2.159c0.39-0.39,0.79-0.77,1.188-1.143c-0.195,0.211-0.247-0.139-0.265-0.325c0.402-0.395,0.808-0.78,1.223-1.155c0.11-1.427,0.976-2.302,1.961-3.094c0.992-0.798,2.088-1.523,2.821-2.827c-0.487,0.694-1.4,1.6-1.389,0.885c0.249-0.545,0.947-1.083,1.416-1.25l-0.224-0.006c1.5-1.16,3.051-2.225,4.651-3.177c-0.682-0.123-3.002,1.983-2.368,0.617c0.139-1.086,1.857-1.618,2.67-2.2c0.138,0.388-1.036,1.83,0.521,0.814c0.041-0.298,1.194-1.707,0.359-1.419c1.757-0.874,4.21-2.2,6.019-2.416c0.375-0.419-0.431-0.14-0.701-0.041l-0.059,0.166c-1.077,0.408-0.697-0.798-2.364,0.78c-0.892-0.992,2.55-2.112,4.241-3.146c-1.083,0.223-2.155,0.506-3.237,0.809c1.875-2.191,4.882-3.671,8.01-4.554c3.139-0.904,6.366-1.219,9.016-1.663c-1.482,0.671-2.842,0.602-2.429,1.547c1.654-0.12,2.359-0.17,3.063-0.255c0.701-0.087,1.401-0.199,3.025-0.271l-0.284-0.024c1.641-0.715,3.974,0.21,5.066-0.694c-0.748-0.565-2.386,0.579-2.476-0.547c1.395-0.039,2.791-0.016,4.182,0.062c-1.302-0.739-4.197-0.114-5.789-0.113c-1.143,0.147,2.327-0.016,1.81,0.78c-3.838,0.198-4.775-0.312-6.899-1.037c-1.337-0.55,1.587-1.124,2.346-1.195c2.729,0.808,6.328,1.102,10.277,0.852c0.738-0.233,1.488-0.459,2.247-0.655c1.862,1.039,0.82,2.375,4.21,2.829c-0.289-0.277-0.586-0.537-0.885-0.806c0.791-0.1,1.3-0.064,1.662,0.019c-1.361-0.785-2.89-1.586-4.218-2.243c1.1-0.517,2.568-0.126,4.052,0.558c1.489,0.682,2.978,1.654,4.338,2.225c-0.093-0.213-1.069-0.55-1.278-0.964c2.189,0.465,4.262,1.53,6.057,2.732c1.809,1.194,3.353,2.5,4.736,3.435c0.754,0.117,0.213-0.33-0.416-0.829c-0.623-0.506-1.341-1.057-0.83-1.272c1.43,1.111,3.545,1.56,3.523,2.488c-0.038-1.401,3.49,2.261,1.205-0.566c2.885,1.621,5.539,3.948,7.771,6.602c2.244,2.653,4.077,5.611,5.586,8.507c0.107-0.45,0.342-0.609,0.686-0.501c-1.209-1.882-2.99-4.651-3.253-6.115c1.446,0.768,1.636,3.238,2.147,3.368c-0.225-0.784-1.179-1.968-0.762-2.343c1.741,1.154,1.676,2.607,2.359,3.795l-0.66-0.451c0.9,1.978,0.756,2.745,0.777,3.444c-0.002,0.713,0.158,1.344,1.313,3.217c1.326,1.122,0.501-0.266,1.236-0.683c0.096,0.549,0.729,1.485,1.261,2.488c0.53,1.001,0.966,2.062,0.733,2.738c-0.342-0.839-0.715-1.666-1.103-2.483c0.556,1.83,1.175,3.51,1.302,4.842c0.131-0.183,0.281-0.351,0.215-0.751c0.239,1.505,0.821,3.347,0.455,4.226l0.983,0.191c-0.579-0.792-1.399-3.318-1.085-3.908c0.855-0.007,1.186,2.785,1.499,3.936c-0.509-2.604-0.562-4.008-0.683-5.305c-0.133-1.288-0.342-2.484-1.566-4.453l0.063,0.819c-1.756-2.29-2.164-5.363-3.58-7.477c0.545,0.488,0.895,0.445,0.849,0.076c-1.813-2.173-3.5-4.355-5.415-6.487c-1.908-2.128-4.036-4.22-6.652-6.023c-0.313-0.628-0.64-1.257-0.982-1.879l-0.5,0.479c-2.711-1.551,0.013-1.188-1.709-2.274c0.65,0.425,0.469,0.44,0.503,0.67c-2.649-2.649-2.04-0.569-3.664-1.796c0.485,1.09,3.18,2.271,1.899,2.602c-1.267-1.298-3.203-2.512-4.822-3.525c-1.617-1.02-2.916-1.885-2.857-2.743c-3.27-0.997-6.859-2.181-10.443-3.038c-3.574-0.871-7.126-1.398-10.015-1.455c-0.786,0.297,0.491,0.219,0.188,0.452c-1.133-0.475-3.057-0.25-4.658,0.077c-1.606,0.313-2.898,0.706-2.977,0.288c-1.058,0.389-1.398,1.092-1.645,1.361c-1.479-0.147-3.223,0.03-5.028,0.415l1.362-0.121l-0.114,0.146c-0.639,0.059-1.285,0.107-1.925,0.19l0.053-0.071c-4.516,1.03-9.252,3.428-13.299,4.885c2.364-0.771,0.008,1.179,1.16,0.881c-1.245-0.037-2.976,0.643-4.742,1.746c-1.773,1.093-3.558,2.618-5.03,4.097c0.205,0.196,0.128,0.578,0.634,0.413c-0.711,0.404-1.411,0.833-2.106,1.277l0.464,0.009c-1.419,1.61-3.134,3.075-4.619,4.557c-1.484,1.474-2.744,2.947-3.24,4.334c1.093-1.408,1.345-1.246,1.816-1.138c-1.744,2.525-3.204,5.001-5.053,8.123c0.154-0.143,0.29-0.22,0.386-0.183c-0.274,0.904-1.025,1.812-1.522,2.661l0.586,0.367c-0.95,1.603-1.359,3.948-2.399,5.932c0.26,0.509-0.229,1.741-0.725,3.213c-0.505,1.466-1.017,3.18-0.985,4.464c-0.257,0.943,0.982-2.013,0.683,0.669c-1.534,0.27-0.257,3.497-1.815,3.674c0.175,0.811,0.378,1.613,0.584,2.407l-0.77,0.557c0.775,1.004,0.661,1.774,0.446,2.708c-0.213,0.927-0.527,2.023-0.07,3.523c0.145-0.188,0.155-0.521,0.289-0.38c-0.037,1.006,0.284,3.294-0.428,1.604c0.136,0.817,0.399,2.629,0.737,3.89c0.327,1.266,0.661,1.973,0.73,0.65c-0.407,0.295-0.583-2.049-0.608-3.053c0.676-0.004,0.953,2.445,1.839,2.834c-0.051,0.094-0.082,0.433-0.128,0.686l0.494,0.219c0.11,3.137,1.735,5.834,1.794,8.239c0.252,0.026,0.607,0.456,1.039,1.413l-0.74,0.421c0.493,0.983,1.027,1.947,1.576,2.899c0.104-0.653,0.213-1.299,0.334-1.937c1.905,2.961,2.136,5.804,3.803,8.32c0.793-0.129,1.571,1.075,2.562,2.431c0.982,1.354,2.207,2.848,3.567,3.27c-0.464-0.625-0.921-1.248-1.356-1.887c1.615,1.838,2.789,2.668,3.902,3.471c1.125,0.795,2.195,1.561,3.904,3.072c-1.71-0.927-2.497-1.51-3.513-2.156c-1.001-0.676-2.237-1.396-4.682-3.012c2.245,1.83,3.99,3.586,5.831,5.199c1.833,1.606,3.769,3.064,6.275,4.016c-0.149-0.459-1.159-1.322,0.113-0.971c0.258,0.568,1.343,1.164,2.236,1.631c0.896,0.463,1.596,0.819,1.061,1.037c1.612,0.438,2.19-0.191,3.135,0.082c1.526,1.012,3.118,1.952,4.771,2.815l-0.115-0.21c4.719,0.402,8.796,1.416,13.109,2.139c4.269,0.704,8.791,1.076,13.367-0.206l-0.264-0.411c0.809,0.079,1.621,0.137,2.439,0.18c-1.9-0.035,0.662-0.725,0.693-1.158c2.006-0.155,4.021-0.424,6.031-0.807C121.639,148.636,120.999,147.917,119.684,148.55z M53.788,120.934c-0.188-0.427-0.38-0.85-0.555-1.281c-0.157-0.235-0.291-0.492-0.339-0.817l0.339,0.817C53.633,120.258,54.199,120.559,53.788,120.934z M119.417,46.527c0.485,0.58-0.925-0.183-1.379-0.262c0.688,0.256,1.375,0.513,2.052,0.794C120.453,46.947,119.701,46.687,119.417,46.527z M58.657,118.402l0.822,0.363l0.02,0.993C59.219,119.311,58.924,118.864,58.657,118.402z M69.349,132.507c-0.361-0.479-0.711-0.966-1.051-1.457l0.186,0.021c0.334,0.486,0.684,0.964,1.039,1.439L69.349,132.507z M84.637,146.949c-0.103-0.072-0.204-0.133-0.315-0.231C84.428,146.779,84.539,146.861,84.637,146.949c1.292,0.887,2.16,0.076,3.052,1.371C85.999,148.707,85.316,147.564,84.637,146.949z M58.065,126.386c-0.265-0.604-0.399-0.896-0.701-1.264c-0.111,0.462,0.204,1.841-0.429,1.099c-0.06-0.77-1.124-2.742-0.641-3.056C56.746,125.168,58.853,125.422,58.065,126.386z M51.161,82.667l-0.068,0.479c0.298-0.532,0.586-1.062,0.9-1.579C51.708,81.927,51.433,82.294,51.161,82.667z M54.452,75.125c1.051-0.591,2.012-2.857,3.016-4.257c-0.314-0.701-1.844,0.459-2.694,2.346C53.242,75.154,55.259,74.436,54.452,75.125z M68.729,136.614l-0.04-0.695l0.381,0.244c-0.407-0.479-0.795-0.976-1.183-1.468c2.253,1.094,2.808,3.14,3.712,4.076C70.704,138.087,69.192,135.252,68.729,136.614z M64.297,60.928c1.49-0.993,4.12-2.668,4.261-2.081c-0.568-0.809-2.689,0.575-3.224,1.15C65.062,60.361,64.792,60.552,64.297,60.928z M65.562,62.229c-1.958,1.5-2.391,1.345-4.286,2.276c1.23-2.218,2.654-1.878,2.832-1.329c1.445-0.964,0.778-1.125,1.307-1.875L65.562,62.229z M61.828,62.372c-0.191,0.291-0.377,0.585-0.558,0.883c-0.462,1.215,0.268,2.048-1.614,2.779c0.513-0.935,1.041-1.87,1.614-2.779C61.367,62.983,61.536,62.683,61.828,62.372z M78.548,49.188c-0.364,0.053-0.72,0.125-1.083,0.19C78.398,48.92,78.576,49.007,78.548,49.188l0.902-0.135C77.589,50.372,78.476,49.559,78.548,49.188z M65.504,58.862c-0.739,0.673-1.451,1.376-2.153,2.09C63.801,61.126,64.891,59.607,65.504,58.862z M78.347,50.255c-1.098,0.604-3.805,2.4-3.444,2.126C74.863,51.768,77.503,50.344,78.347,50.255z M137.941,60.166c-0.418-0.44-0.856-0.86-1.289-1.287l1.111,0.102L137.941,60.166z M119.855,49.317l0.537-0.161l0.963,0.43C120.857,49.481,120.354,49.406,119.855,49.317z M100.739,46.298c0.088-0.151,0.031-0.335-0.137-0.485c-0.299-0.047-0.565-0.126-0.698-0.263c0.271-0.013,0.536,0.104,0.698,0.263c0.793,0.119,1.955,0.029,2.496-0.167c-0.313-0.349-1.535-0.273-2.016-0.487c0.903-0.418,2.396-0.028,3.48,0.244c1.084,0.257,1.808,0.345,1.301-0.852c0.777,0.301,3.326,1.201,2.375,1.504C106.205,45.637,102.262,45.777,100.739,46.298c-0.086,0.126-0.25,0.229-0.6,0.261C100.239,46.47,100.467,46.383,100.739,46.298z M76.185,54.249c-0.649,0.333-0.95,0.456-1.112,0.471c-0.62,0.198-1.162,0.262-1.187-0.106c1.442-0.629,0.763,0.142,1.187,0.106C75.449,54.59,75.839,54.439,76.185,54.249z M72.489,56.961c0.719-0.362,1.444-0.706,2.174-1.028c-0.418,0.089-0.847,0.172-1.265,0.276c1.156-0.441,2.311-0.848,3.478-1.192C75.407,56.451,73.125,57.245,72.489,56.961z M72.099,57.82l-0.724-0.126l0.937-0.021L72.099,57.82l0.166,0.032c-1.104,0.731-2.183,1.507-3.233,2.328C70.026,59.354,71.05,58.567,72.099,57.82z M52.321,92.44c0.891,0.825,1.292-0.041,1.622-1.158c0.328-1.123,0.643-2.516,1.162-2.811c-0.586-0.252-1.372-1.947-1.908,1.936c-0.157-3.464,1.519-1.869,0.32-4.15c-0.227,1.611-0.98,3.487-1.074,3.777c0.067-0.643,0.13-1.287,0.221-1.928C51.302,89.023,52.8,91.149,52.321,92.44z M55.184,112.874c0.262,0.801,0.543,1.597,0.847,2.382c-0.251-0.76-0.484-1.523-0.695-2.293L55.184,112.874z M103.006,145.975c-0.156-0.423,2.954-1.347,3.771-0.604C105.183,145.639,103.419,145.639,103.006,145.975z M128.284,138.846c-0.868,0.381-1.742,0.738-2.624,1.066c-0.018-1.143,2.193-1.165,3.212-2.041C129.529,138.052,128.479,138.323,128.284,138.846z M141.837,126.636l0.673-0.62c-0.455,0.059-0.917,0.102-1.373,0.143L141.837,126.636z M140.021,126.762c-0.008-0.705-1.346,0.592-1.59,0.953C138.96,127.404,139.5,127.096,140.021,126.762z M147.02,112.508c-0.1,0.361-0.221,0.715-0.33,1.073c0.396-0.209,0.807-0.421,1.201-0.646L147.02,112.508z M147.363,114.573c-0.717,0.005-1.424-0.417-2.098,2.1c0.565,0.392,0.867-0.266,1.172,0.97c0.527-0.726,0.559-1.502,0.676-1.924c-0.336,0.502-0.365,1.26-0.848,1.217C146.454,115.938,146.914,115.049,147.363,114.573c0.248-0.003,0.498-0.06,0.717-0.353C147.883,114.154,147.63,114.299,147.363,114.573z M143.531,123.436c-0.129,0.338-0.217,0.646-0.206,0.825l-0.233,0.037C143.061,123.835,143.281,123.609,143.531,123.436l0.496-1.229c-0.326-0.542-1.623,0.771-2.154,0.973c0.604-0.609,1.488-0.934,1.773-2.088c-0.226,0.041-0.239-0.135-0.607,0.469c0.242-0.457,0.459-0.931,0.688-1.395c1.558-1.169,0.979,0.45,0.303,2.041c0.08,0.111,0.123,0.29,0.074,0.645C144.029,123.129,143.77,123.264,143.531,123.436z M150.316,112.29c-0.143,0.269-0.291,0.533-0.443,0.796c-0.363,0.359-0.482,0.01-0.693,0.104C149.582,112.239,150.35,111.045,150.316,112.29z M111.605,146.289c0.552-0.281-0.916-0.674-2.198-0.323l0.569-0.94c0.116,0.563,2.724,0.035,3.018-0.004C113.622,145.688,112.542,145.596,111.605,146.289z M58.239,121.209c0.665-0.928-1.431-3.661-1.454-4.49C57.663,118.27,59.83,121.627,58.239,121.209z M55.232,115.998c-0.351-0.884-0.534-1.104,0.002-1.207c0.045-0.504-0.486-1.104-0.423-1.611C55.875,114.732,55.041,114.919,55.232,115.998c0.088,0.23,0.189,0.497,0.302,0.832C55.347,116.492,55.273,116.23,55.232,115.998z M80.078,142.506c0.263,0.424,0.539,0.832,0.816,1.253c0.621,0.253,1.24,0.509,1.871,0.734C81.839,143.859,80.946,143.189,80.078,142.506z M100.501,149.012c-0.144-0.447,2.162-0.406,2.649-0.211c-0.16-0.59-1.695-0.494-2.917-0.621c-0.157-0.057-0.411-0.092-0.803-0.117c0.236,0.061,0.501,0.092,0.803,0.117c0.452,0.156,0.122,0.448,0.113,0.656l-0.625,0.148c0.57,0.072,1.143,0.16,1.717,0.219L100.501,149.012z M136.454,137.381c0.78-1.261,0.998-1.246,1.815-1.759C138.203,135.999,137.297,136.896,136.454,137.381z M88.943,147.832c2.357,0.292-0.869-1.146,0.695-1.049l-1.19-0.254c2.063-0.1,1.196,1.013,2.608,1.16c-0.315-0.025-0.629-0.059-0.943-0.098c-0.863,0.389,1.317,0.711,1.407,1.18C90.367,148.793,87.991,147.705,88.943,147.832z M138.396,136.2c1.334-2.031,1.842-0.892,2.946-1.854C140.363,136.075,139.798,135.111,138.396,136.2z M103.775,151.279l-0.149,0.113c0.658,0.094,1.321,0.183,1.987,0.254l0.152-0.125C105.099,151.462,104.435,151.363,103.775,151.279z"
     id="path3335"
     style="fill:#ff0000" />
  <path
     fill="#FFF"
     d="M136.283,129.977c0.311-0.425,0.563-0.656,0.785-0.836C136.848,129.428,136.581,129.705,136.283,129.977z"
     id="path3337"
     style="fill:#ff0000" />
  <path
     fill="#FFF"
     d="M57.287,109.646c-0.159-0.002-0.293-0.155-0.404-0.377C56.978,109.273,57.095,109.365,57.287,109.646z"
     id="path3339"
     style="fill:#ff0000" />
  <polygon
     fill="#FFF"
     points="56.689,105.621 56.663,105.469 56.691,105.336 "
     id="polygon3341"
     style="fill:#ff0000" />
  <path
     fill="#FFF"
     d="M148.545,81.181c-0.411,1.079-0.379-0.783-0.643-1.463C148.148,80.395,148.73,80.494,148.545,81.181z"
     id="path3343"
     style="fill:#ff0000" />
  <path
     fill="#FFF"
     d="M147.525,75.375c-0.004,0.489,0.117,1.116,0.361,1.84C147.673,76.787,147.547,76.279,147.525,75.375z"
     id="path3345"
     style="fill:#ff0000" />
  <path
     fill="#FFF"
     d="M149.049,79.886c-0.52-1.015-0.914-1.908-1.162-2.67C148.199,77.886,148.713,78.368,149.049,79.886z"
     id="path3347"
     style="fill:#ff0000" />
  <path
     fill="#FFF"
     d="M138.566,62.559c0.31,0.958,1.615,2.124,1.613,2.13c-2.81-2.587-0.115,1.118-0.227,1.581C138.598,64.385,138.996,64.016,138.566,62.559z"
     id="path3349"
     style="fill:#ff0000" />
  <path
     fill="#FFF"
     d="M135.059,58.87c0.299,0.259,0.594,0.499,0.856,0.644C135.559,59.349,135.294,59.124,135.059,58.87z"
     id="path3351"
     style="fill:#ff0000" />
  <path
     fill="#FFF"
     d="M133.688,58.287c-0.959-0.915-1.031-1.592-1.291-2.276c1.535,0.689,1.838,1.992,2.662,2.858C134.336,58.262,133.652,57.637,133.688,58.287z"
     id="path3353"
     style="fill:#ff0000" />
  <path
     fill="#FFF"
     d="M95.931,50.037c0.292,0.009,0.981-0.077,1.033,0.204c-0.691,0.082-1.379,0.184-2.065,0.301C94.042,50.518,95.519,50.142,95.931,50.037z"
     id="path3355"
     style="fill:#ff0000" />
  <path
     fill="#FFF"
     d="M87.97,50.423c-1.659,0.491-0.569,0.903-1.442,1.029l-0.225-0.94C86.858,50.467,87.417,50.449,87.97,50.423z"
     id="path3357"
     style="fill:#ff0000" />
  <path
     fill="#FFF"
     d="M87.527,45.47l0.563-0.063c-0.205,0.039-0.406,0.091-0.624,0.145L87.527,45.47z"
     id="path3359"
     style="fill:#ff0000" />
  <path
     fill="#FFF"
     d="M80.726,54.435c0.51,0.135,1.018,0.288,1.515,0.436C80.875,55.239,80.46,54.518,80.726,54.435z"
     id="path3361"
     style="fill:#ff0000" />
  <path
     fill="#FFF"
     d="M75.621,58.374l0.991-0.282c-0.896,0.485-1.792,0.983-2.66,1.53C74.497,59.191,75.056,58.778,75.621,58.374z"
     id="path3363"
     style="fill:#ff0000" />
  <path
     fill="#FFF"
     d="M69.376,62.914l-0.038,0.354c-0.56,0.435-1.116,0.879-1.661,1.341C68.23,64.03,68.794,63.463,69.376,62.914z"
     id="path3365"
     style="fill:#ff0000" />
  <path
     fill="#FFF"
     d="M76.33,136.859c-0.227,0.959-2.913-1.314-3.829-1.789C73.722,134.596,74.521,137.061,76.33,136.859z"
     id="path3367"
     style="fill:#ff0000" />
  <path
     fill="#FFF"
     d="M134.406,132.33c-0.859,0.686-1.752,1.324-2.654,1.945C133.508,132.407,132.314,133.855,134.406,132.33z"
     id="path3369"
     style="fill:#ff0000" />
  <path
     fill="#FFF"
     d="M93.687,25.996c0.429,0.411-0.135-0.125-0.613-0.597c-0.157-0.127-0.319-0.25-0.484-0.368C92.972,25.334,93.334,25.661,93.687,25.996z"
     id="path3371"
     style="fill:#ff0000" />
  <path
     fill="#FFF"
     d="M91.112,23.96c-0.488-0.26-0.996-0.484-1.521-0.654c0.376,0.128,0.737,0.297,1.096,0.469c1.117,0.711-0.199-0.012-0.675-0.16C91.949,24.549,90.773,23.862,91.112,23.96z"
     id="path3373"
     style="fill:#ff0000" />
  <path
     fill="#FFF"
     d="M88.119,22.701c-1.004-0.334-0.766-0.083-0.353,0.063C87.85,22.723,88.526,22.875,88.119,22.701z"
     id="path3375"
     style="fill:#ff0000" />
  <path
     fill="#FFF"
     d="M41.765,62.548c0.337-0.321,0.583-0.693,0.983-0.637C42.353,61.554,42.012,61.468,41.765,62.548z"
     id="path3377"
     style="fill:#ff0000" />
  <path
     fill="#FFF"
     d="M42.749,61.911c0.073,0.069,0.155,0.143,0.235,0.23c-0.029-0.071-0.04-0.131-0.092-0.213C42.838,61.906,42.796,61.918,42.749,61.911z"
     id="path3379"
     style="fill:#ff0000" />
  <path
     fill="#FFF"
     d="M59.61,45.101c-0.505-1.146,0.063-1.389,0.072-2.339l1.153,0.222c0.001-1.068-0.691-0.947-0.884-1.933c0.475-0.184,0.793-0.786,1.052-1.398c0.264-0.607,0.479-1.214,0.615-1.385c0.51,0.074,0.291,0.786,0.443,1.112c0.324-1.251-0.418-1.877,0.492-3.119l0.197,0.176c0.622-1.981,1.99-3.761,3.602-5.374c1.619-1.613,3.482-3.072,5.306-4.415c-0.275,0.116-0.26-0.04-0.412-0.099c4.02-2.514,9.375-4.26,13.352-4.44c-1.328-0.094-3.122-0.188-4.926-0.023c-1.798,0.159-3.599,0.572-4.759,1.418c-1.07-0.073-2.32,1.028-2.901,0.647c-3.719,1.229-4.555,3.136-7.412,5.314c-0.499,0.188-0.529-0.301-0.875-0.537c0.718-0.683,1.472-1.332,2.256-1.948l-1.702,0.698c0.465-0.741,2.259-1.497,2.145-2.161c-0.986,0.957-2.415,1.882-3.741,2.895c-1.326,1.004-2.545,2.103-2.977,3.317c0.92-0.549,1.771-1.59,2.82-2.288c0.603-0.111,1.394-0.451,1.577-0.085c-1.068,1.542-2.116,2.727-3.185,3.89c-1.061,1.161-2.153,2.309-2.987,3.842c-0.418,0.767-1.091,1.675-1.609,1.47c0.157-0.586-0.44-0.5-0.382-1.05c-0.316,1.309,1.482,1.288,0.456,2.627l-1.519-1.297c0.669,0.89,0.345,1.291-0.116,1.717c-0.449,0.422-1.058,0.883-0.716,1.741c-0.939,0.033-1.061-0.952-0.625-1.866c-0.854,0.832,0.192,1.496-0.164,2.27c-0.459-0.512-0.874-1.032-1.284-1.571c0.547,0.833,0.32,1.175-0.183,1.378c-0.497,0.199-1.257,0.259-1.655,0.421c0.413,0.223,1.907,0.274,1.422,1.365c-0.379,0.413-0.767,0.011-1.063,0.043c0.422,0.221,1.13,0.887,1.012,1.653c-0.679-0.023-0.833-0.767-1.456-1.007c-0.144,0.617-0.124,1.145-0.778,1.461c0.294,1.214,0.961,0.154,1.536,0.977c-0.81,1.545-2.36-0.343-3.925-0.03c-0.636-1.505-0.376-3.264-0.536-4.249c-0.1,0.476-0.177,1-0.237,1.454l-0.134,1.334c-0.718-0.345-1.88,1.443-2.207-0.097c-1.601,2.455-1.55,5.829-1.262,8.404c0.379-0.325,0.654-0.757,1.202-0.621c0.305,1.338-0.792,1.08-1.505,1.286c0.462,1.023,2.081,1.05,3.204,1.716c-1.601,1.842-0.762,2.152-2.992,3.766l1.715-0.056c-1.485,1.158,1.119,1.37,0.038,2.628c-0.384,0.072-0.81-0.416-1.187-0.816c0.506,1.139-1.565,1.064-0.945,2.191c-0.652-0.286-1.293-0.579-1.927-0.878c-0.016,0.922,0.529,2.258-1.169,1.836c1.959,1.55,1.06,4.44,2.4,6.352l-1.686,0.057c1.028,0.419,1.044,1.388,1.13,2.349c0.086,0.957,0.247,1.906,1.572,2.126l-0.696,0.289c0.863,0.558,1.75,1.089,2.664,1.589c-0.051,0.969-2.799,1.302-2.04,1.198c0.819,2.01,1.369,3.574,0.792,5.295c2.535-0.477,3.835,1.388,4.852,2.888c0.455,2.166,1.378,4.325,2.801,6.263c1.415,1.935,3.352,3.637,5.606,4.775c2.246,1.148,4.776,1.688,7.125,1.588c2.357-0.091,4.508-0.772,6.304-1.764c0.548-0.074,1.152-1.071,1.645-2.299c0.502-1.226,0.891-2.679,1.267-3.62c-1.408-0.558-1.288,1.167-2.632,1.299c-1.034-0.799-1.321-4.229-1.64-6.259c0.007,0.909,0.037,1.828,0.096,2.745c-0.588,1.134-0.773,0.747-0.874,0.453c-0.122-0.303-0.166-0.511-0.825,0.803l0.831-4.314c-0.299,1.109-0.534,1.193-0.639,0.87c-0.111-0.324-0.077-1.042,0.01-1.579c-0.345,0.947-0.716,1.888-1.105,2.81c0.016-1.638,0.057-2.318,1.114-4.707l-1.12,2.416c0.284-0.774-0.087-0.773-0.216-1.103c-0.143-0.338,0.078-0.876,1.514-2.664c-0.397,0.49-1.274,1.553-1.303,1.237l1.586-2.008c-0.616,0.519-1.316,0.701-0.371-0.313c0.572-0.373,1.379-1.186,2.173-2.003c-0.176-0.013-1.838,1.219-3.497,2.557c-1.669,1.313-3.395,2.74-4.259,1.975L62.83,83.7c-0.578,0.199-1.164,0.375-1.755,0.526c0.42-0.518,0.848-1.015,1.285-1.499c-2.526,1.069-2.963,0.201-3.095-0.827c-0.139-1.049,0-2.23-1.593-2.576c-0.656-0.521,1.739-2.16,0.956-3.217l-2.043,0.614c1.706-1.54,1.839-5.565,6.063-7.004c-1.822-0.708-0.377,0.143-1.933,0.324c-2.579-1.596,0.451-2.086,1.253-3.089c-1.26-1.064-0.466,0.916-2.063,0.417c0.95-1.856-2.654-1.328-1.86-3.694c0.96-0.243,0.808,0.583,1.533,0.795c-2.174-1.549-1.519-4.651-2.064-7.136c0.452-1.375,0.713-3.082,1.055-4.803c0.169-0.86,0.356-1.723,0.582-2.542c0.113-0.408,0.233-0.808,0.367-1.188l0.207-0.557c0.036-0.085,0.075-0.191,0.108-0.257l0.091-0.156l-0.464-0.168c0.565-0.251,0.558-0.679,0.545-1.215c-0.023-0.529-0.062-1.157,0.296-1.638L59.61,45.101z"
     id="path3381"
     style="fill:#ff0000" />
  <path
     fill="#FFF"
     d="M66.83,24.463l-0.557-0.383c-0.486,0.369-0.962,0.749-1.422,1.146C65.747,25.321,65.864,24.779,66.83,24.463z"
     id="path3383"
     style="fill:#ff0000" />
  <path
     fill="#FFF"
     d="M67.33,26.198l0.666-0.662c-0.424,0.238-0.847,0.477-1.261,0.729L67.33,26.198z"
     id="path3385"
     style="fill:#ff0000" />
  <path
     fill="#FFF"
     d="M50.767,40.404l0.254-0.128c0.284-1.131,0.662-2.248,1.12-3.334C51.595,38.063,51.13,39.221,50.767,40.404z"
     id="path3387"
     style="fill:#ff0000" />
  <path
     fill="#FFF"
     d="M40.258,62.413c-0.745-0.417-0.343-1.012-0.818-1.453c0.176,0.569,0.359,1.135,0.556,1.697L40.258,62.413z"
     id="path3389"
     style="fill:#ff0000" />
  <path
     fill="#FFF"
     d="M33.314,80.831c3.23,0.029,0.12,1.522,2.894-0.164C35.556,79.621,34.408,80.926,33.314,80.831z"
     id="path3391"
     style="fill:#ff0000" />
  <path
     fill="#FFF"
     d="M38.595,84.067c-0.032-0.696-0.574-0.921-1.112-1.157C36.199,84.214,37.86,83.776,38.595,84.067z"
     id="path3393"
     style="fill:#ff0000" />
  <path
     fill="#FFF"
     d="M153.992,32.156c0.095,0.587-0.024-0.183-0.137-0.845c-0.047-0.197-0.104-0.392-0.17-0.583C153.813,31.198,153.915,31.675,153.992,32.156z"
     id="path3395"
     style="fill:#ff0000" />
  <path
     fill="#FFF"
     d="M153.137,28.987c-0.234-0.501-0.514-0.98-0.83-1.431c0.221,0.331,0.418,0.676,0.601,1.03c0.477,1.236-0.156-0.127-0.446-0.531c0.527,0.936,0.602,1.123,0.628,1.078C153.105,29.093,153.045,28.837,153.137,28.987z"
     id="path3397"
     style="fill:#ff0000" />
  <path
     fill="#FFF"
     d="M151.482,26.192c-0.611-0.864-0.564-0.524-0.323-0.158C151.256,26.048,151.704,26.577,151.482,26.192z"
     id="path3399"
     style="fill:#ff0000" />
  <path
     fill="#FFF"
     d="M90.514,30.623c0.462-0.058,0.881-0.21,1.169,0.073C91.578,30.173,91.355,29.901,90.514,30.623z"
     id="path3401"
     style="fill:#ff0000" />
  <path
     fill="#FFF"
     d="M91.683,30.696c0.018,0.099,0.039,0.207,0.052,0.324c0.019-0.074,0.046-0.128,0.053-0.226C91.758,30.745,91.717,30.729,91.683,30.696z"
     id="path3403"
     style="fill:#ff0000" />
  <path
     fill="#FFF"
     d="M115.236,27.223c0.273-1.223,0.877-1.079,1.451-1.836l0.795,0.865c0.631-0.862,0.012-1.167,0.438-2.081c0.494,0.141,1.104-0.163,1.68-0.495c0.572-0.333,1.106-0.692,1.318-0.747c0.367,0.365-0.236,0.799-0.307,1.156c1.007-0.809,0.781-1.76,2.252-2.214l0.054,0.259c1.679-1.223,3.838-1.836,6.095-2.174c2.26-0.332,4.627-0.396,6.891-0.389c-0.291-0.07-0.186-0.187-0.271-0.325c4.727,0.374,10.07,2.155,13.372,4.38c-1.009-0.868-2.397-2.009-3.942-2.951c-1.541-0.942-3.232-1.684-4.67-1.692c-0.815-0.695-2.477-0.555-2.716-1.208c-3.721-1.227-5.526-0.189-9.118-0.142c-0.515-0.143-0.246-0.555-0.385-0.949c0.982-0.121,1.977-0.198,2.973-0.224l-1.783-0.452c0.815-0.318,2.707,0.146,3.011-0.46c-1.361,0.183-3.062,0.078-4.729,0.099c-1.662,0.021-3.297,0.175-4.365,0.894c1.065,0.106,2.369-0.223,3.627-0.16c0.552,0.271,1.39,0.469,1.318,0.872c-1.775,0.599-3.322,0.935-4.875,1.229c-1.543,0.305-3.104,0.571-4.688,1.31c-0.791,0.369-1.875,0.693-2.169,0.223c0.475-0.379-0.058-0.664,0.317-1.069c-1.033,0.86,0.426,1.917-1.197,2.381l-0.446-1.945c0.006,1.11-0.492,1.241-1.116,1.31c-0.613,0.068-1.374,0.082-1.611,0.972c-0.774-0.533-0.285-1.396,0.607-1.873c-1.182,0.161-0.734,1.317-1.482,1.728c-0.061-0.68-0.09-1.355-0.096-2.027c-0.056,0.996-0.443,1.133-0.967,0.999c-0.518-0.137-1.166-0.543-1.581-0.646c0.201,0.427,1.368,1.353,0.331,1.943c-0.555,0.102-0.625-0.45-0.883-0.602c0.213,0.435,0.378,1.384-0.168,1.934c-0.53-0.421-0.217-1.115-0.573-1.679c-0.479,0.416-0.78,0.848-1.492,0.714c-0.487,1.15,0.681,0.696,0.652,1.699c-1.57,0.759-1.692-1.681-3.137-2.361c0.387-1.584,1.638-2.854,2.098-3.736c-0.362,0.328-0.739,0.696-1.055,1.03l-0.902,0.992c-0.371-0.705-2.37,0.04-1.715-1.391c-2.748,1.02-4.715,3.761-6.017,6.002c0.498-0.035,0.976-0.219,1.335,0.217c-0.551,1.257-1.279,0.397-1.975,0.138c-0.237,1.098,1.047,2.083,1.553,3.286c-2.383,0.527-1.894,1.275-4.646,1.245l1.411,0.976c-1.883,0.046,0.084,1.767-1.533,2.134c-0.351-0.171-0.403-0.816-0.468-1.363c-0.271,1.216-1.891-0.076-2.063,1.199c-0.354-0.618-0.694-1.235-1.025-1.854c-0.561,0.732-0.919,2.13-2.032,0.779c0.651,2.412-1.792,4.199-1.853,6.533l-1.389-0.958c0.577,0.95,0.013,1.737-0.49,2.561c-0.5,0.82-0.937,1.679-0.002,2.644l-0.731-0.182c0.362,0.962,0.758,1.917,1.195,2.862c-0.618,0.748-3.024-0.62-2.352-0.252c-0.539,2.103-1.028,3.687-2.516,4.727c2.321,1.125,2.256,3.398,2.18,5.209c-0.924,2.011-1.467,4.296-1.477,6.7c-0.015,2.397,0.528,4.918,1.662,7.174c1.122,2.26,2.833,4.2,4.779,5.517c1.948,1.331,4.083,2.063,6.116,2.335c0.485,0.267,1.563-0.175,2.69-0.869c1.133-0.686,2.311-1.622,3.173-2.154c-0.8-1.286-1.73,0.171-2.889-0.522c-0.355-1.258,1.456-4.184,2.408-6.006c-0.535,0.735-1.058,1.491-1.557,2.262c-1.148,0.561-1.066,0.14-0.972-0.156c0.083-0.316,0.171-0.509-1.141,0.154l3.235-2.973c-0.9,0.714-1.139,0.642-1.031,0.319c0.104-0.326,0.559-0.883,0.948-1.262c-0.841,0.555-1.699,1.091-2.561,1.6c0.988-1.307,1.426-1.829,3.697-3.12l-2.338,1.275c0.689-0.453,0.391-0.673,0.483-1.015c0.087-0.357,0.584-0.658,2.802-1.239c-0.61,0.157-1.948,0.489-1.783,0.218l2.47-0.669c-0.804,0.05-1.476-0.22-0.112-0.472c0.681,0.041,1.814-0.132,2.938-0.316c-0.133-0.115-2.203-0.115-4.332-0.027c-2.123,0.061-4.359,0.181-4.598-0.949l1.583,0.066c-0.583-0.184-1.159-0.391-1.724-0.622c0.646-0.166,1.286-0.311,1.924-0.439c-2.667-0.644-2.5-1.602-1.995-2.507c0.513-0.926,1.328-1.792,0.253-3.018c-0.217-0.81,2.683-0.7,2.683-2.017l-2.007-0.723c2.287-0.222,4.791-3.377,9.041-2.019c-1.042-1.654-0.389-0.109-1.747-0.891c-1.122-2.817,1.604-1.408,2.846-1.736c-0.379-1.604-0.919,0.458-1.906-0.892c1.868-0.926-1.342-2.647,0.704-4.076c0.916,0.377,0.302,0.949,0.758,1.551c-0.825-2.539,1.548-4.641,2.587-6.963c1.183-0.836,2.407-2.052,3.707-3.232c0.648-0.591,1.313-1.172,1.98-1.695c0.334-0.261,0.669-0.51,1.002-0.736l0.499-0.324l0.237-0.143l0.164-0.073l-0.272-0.412c0.606,0.136,0.856-0.211,1.162-0.652c0.297-0.438,0.644-0.963,1.214-1.14L115.236,27.223z"
     id="path3405"
     style="fill:#ff0000" />
  <path
     fill="#FFF"
     d="M133.324,14.937l-0.221-0.637c-0.609,0.004-1.219,0.028-1.824,0.074C131.943,14.981,132.359,14.617,133.324,14.937z"
     id="path3407"
     style="fill:#ff0000" />
  <path
     fill="#FFF"
     d="M132.693,16.629c0.309-0.051,0.617-0.097,0.929-0.136c-0.481-0.065-0.964-0.119-1.447-0.166L132.693,16.629z"
     id="path3409"
     style="fill:#ff0000" />
  <path
     fill="#FFF"
     d="M110.928,18.186l0.28,0.048c0.901-0.74,1.87-1.411,2.885-2.011C112.986,16.798,111.925,17.452,110.928,18.186z"
     id="path3411"
     style="fill:#ff0000" />
  <path
     fill="#FFF"
     d="M89.384,29.616c-0.35-0.778,0.327-1.018,0.208-1.654c-0.198,0.562-0.388,1.125-0.564,1.695L89.384,29.616z"
     id="path3413"
     style="fill:#ff0000" />
  <path
     fill="#FFF"
     d="M72.84,40.283c2.578,1.946-0.81,1.294,2.423,1.591C75.362,40.646,73.663,41.01,72.84,40.283z"
     id="path3415"
     style="fill:#ff0000" />
  <path
     fill="#FFF"
     d="M75.157,46.027c0.389-0.578,0.087-1.082-0.206-1.591C73.145,44.719,74.74,45.355,75.157,46.027z"
     id="path3417"
     style="fill:#ff0000" />
  <path
     fill="#FFF"
     d="M194.23,94.998c-0.349,0.481,0.112-0.146,0.502-0.693c0.106-0.172,0.207-0.349,0.295-0.532C194.783,94.194,194.518,94.603,194.23,94.998z"
     id="path3419"
     style="fill:#ff0000" />
  <path
     fill="#FFF"
     d="M195.872,92.154c0.188-0.52,0.332-1.056,0.427-1.599c-0.078,0.39-0.184,0.773-0.306,1.152c-0.538,1.209-0.021-0.2,0.062-0.691c-0.289,1.034-0.371,1.218-0.32,1.206C195.775,92.207,195.913,91.983,195.872,92.154z"
     id="path3421"
     style="fill:#ff0000" />
  <path
     fill="#FFF"
     d="M196.684,89.009c0.18-1.042-0.026-0.77-0.117-0.34C196.625,88.747,196.566,89.438,196.684,89.009z"
     id="path3423"
     style="fill:#ff0000" />
  <path
     fill="#FFF"
     d="M150.5,48.959c0.367,0.287,0.771,0.475,0.773,0.88C151.57,49.396,151.604,49.046,150.5,48.959z"
     id="path3425"
     style="fill:#ff0000" />
  <path
     fill="#FFF"
     d="M151.273,49.84c-0.058,0.083-0.119,0.174-0.192,0.266c0.065-0.04,0.123-0.058,0.196-0.122C151.292,49.927,151.273,49.888,151.273,49.84z"
     id="path3427"
     style="fill:#ff0000" />
  <path
     fill="#FFF"
     d="M170.361,64.068c1.061-0.668,1.385-0.14,2.326-0.269l-0.053,1.173c1.059-0.161,0.836-0.816,1.784-1.158c0.249,0.449,0.894,0.667,1.535,0.84c0.64,0.17,1.271,0.295,1.46,0.407c0.001,0.518-0.732,0.397-1.034,0.599c1.283,0.141,1.798-0.689,3.157,0.031l-0.146,0.221c2.053,0.326,4.012,1.421,5.842,2.781c1.832,1.367,3.549,2.998,5.143,4.605c-0.154-0.255,0.002-0.263,0.038-0.422c3.071,3.611,5.584,8.653,6.34,12.563c-0.099-1.327-0.271-3.116-0.694-4.877c-0.42-1.755-1.09-3.478-2.099-4.5c-0.084-1.069-1.354-2.146-1.062-2.776c-1.758-3.501-3.77-4.048-6.338-6.559c-0.262-0.464,0.219-0.566,0.4-0.941c0.78,0.61,1.535,1.259,2.258,1.946l-0.938-1.581c0.8,0.352,1.807,2.019,2.449,1.806c-1.09-0.835-2.215-2.112-3.408-3.279c-1.189-1.163-2.451-2.211-3.717-2.461c0.679,0.83,1.832,1.52,2.674,2.457c0.199,0.581,0.648,1.314,0.313,1.548c-1.678-0.834-3.008-1.693-4.312-2.584c-1.307-0.877-2.598-1.795-4.237-2.394c-0.819-0.3-1.813-0.839-1.688-1.379c0.604,0.068,0.431-0.509,0.981-0.529c-1.339-0.125-1.058,1.654-2.532,0.832l1.063-1.689c-0.781,0.789-1.227,0.528-1.715,0.135c-0.482-0.387-1.028-0.915-1.827-0.456c-0.169-0.924,0.788-1.188,1.756-0.891c-0.947-0.723-1.452,0.409-2.271,0.17c0.438-0.522,0.896-1.021,1.367-1.499c-0.744,0.664-1.115,0.485-1.39,0.021c-0.271-0.463-0.438-1.209-0.658-1.576c-0.161,0.444,0.007,1.924-1.144,1.606c-0.463-0.32-0.123-0.76-0.196-1.049c-0.158,0.457-0.714,1.244-1.488,1.246c-0.075-0.673,0.638-0.94,0.783-1.591c-0.632-0.045-1.149,0.046-1.56-0.553c-1.158,0.468-0.012,0.973-0.742,1.662c-1.646-0.576-0.004-2.385-0.543-3.888c1.396-0.845,3.177-0.854,4.127-1.152c-0.486-0.025-1.014-0.032-1.475-0.02l-1.34,0.062c0.236-0.761-1.701-1.65-0.227-2.197c-2.662-1.226-5.993-0.684-8.498-0.023c0.376,0.328,0.845,0.536,0.789,1.099c-1.279,0.497-1.186-0.625-1.492-1.301c-0.945,0.607-0.734,2.212-1.23,3.42c-2.056-1.315-2.238-0.44-4.16-2.411l0.305,1.688c-1.362-1.301-1.191,1.307-2.596,0.421c-0.127-0.369,0.295-0.861,0.637-1.293c-1.053,0.667-1.282-1.393-2.307-0.615c0.188-0.687,0.385-1.364,0.588-2.035c-0.914,0.119-2.156,0.853-1.985-0.889c-1.248,2.164-4.239,1.695-5.935,3.3l-0.303-1.66c-0.266,1.079-1.221,1.235-2.158,1.461c-0.936,0.225-1.852,0.522-1.875,1.865l-0.388-0.646c-0.426,0.936-0.821,1.891-1.184,2.867c-0.966,0.091-1.696-2.579-1.482-1.843c-1.868,1.103-3.336,1.875-5.122,1.556c0.842,2.438-0.814,3.997-2.15,5.221c-2.076,0.766-4.078,1.994-5.788,3.685c-1.708,1.682-3.109,3.847-3.907,6.242c-0.809,2.39-0.975,4.971-0.532,7.28c0.435,2.319,1.421,4.348,2.664,5.979c0.153,0.532,1.228,0.983,2.515,1.292c1.285,0.318,2.78,0.491,3.767,0.726c0.346-1.475-1.343-1.104-1.67-2.415c0.641-1.14,3.991-1.923,5.952-2.535c-0.896,0.14-1.803,0.303-2.7,0.495c-1.207-0.417-0.853-0.656-0.575-0.799c0.282-0.165,0.48-0.238-0.915-0.699l4.39,0.193c-1.141-0.134-1.258-0.354-0.953-0.506c0.305-0.156,1.021-0.228,1.563-0.22c-0.986-0.204-1.972-0.433-2.939-0.684c1.623-0.223,2.302-0.282,4.818,0.416l-2.554-0.755c0.808,0.168,0.752-0.199,1.06-0.375c0.314-0.19,0.879-0.051,2.855,1.11c-0.542-0.322-1.723-1.034-1.413-1.109l2.218,1.277c-0.604-0.534-0.886-1.2,0.256-0.413c0.451,0.511,1.373,1.192,2.297,1.858c-0.012-0.176-1.474-1.641-3.039-3.087c-1.541-1.46-3.205-2.96-2.573-3.926l1.069,1.167c-0.281-0.542-0.541-1.097-0.775-1.66c0.572,0.34,1.128,0.691,1.67,1.053c-1.428-2.343-0.631-2.902,0.365-3.183c1.019-0.291,2.207-0.326,2.316-1.952c0.42-0.726,2.391,1.406,3.322,0.477l-0.904-1.932c1.771,1.463,5.773,1.008,7.813,4.977c0.435-1.906-0.197-0.353-0.604-1.865c1.203-2.784,2.131,0.142,3.238,0.79c0.869-1.402-0.975-0.328-0.713-1.98c1.975,0.67,0.927-2.819,3.383-2.379c0.38,0.915-0.459,0.884-0.563,1.632c1.215-2.376,4.379-2.18,6.759-3.083c1.426,0.247,3.151,0.257,4.905,0.344c0.877,0.042,1.758,0.102,2.6,0.206c0.421,0.052,0.833,0.113,1.229,0.19l0.582,0.124l0.271,0.068l0.166,0.064l0.099-0.483c0.332,0.525,0.756,0.458,1.282,0.362c0.521-0.099,1.138-0.224,1.665,0.055L170.361,64.068z"
     id="path3429"
     style="fill:#ff0000" />
  <path
     fill="#FFF"
     d="M191.834,68.203l0.296-0.605c-0.435-0.429-0.88-0.843-1.341-1.24C190.827,67.257,191.38,67.294,191.834,68.203z"
     id="path3431"
     style="fill:#ff0000" />
  <path
     fill="#FFF"
     d="M190.189,68.952c0.254,0.182,0.504,0.37,0.752,0.562c-0.295-0.387-0.598-0.767-0.904-1.142L190.189,68.952z"
     id="path3433"
     style="fill:#ff0000" />
  <path
     fill="#FFF"
     d="M173.721,54.636l0.164,0.232c1.16,0.116,2.319,0.328,3.461,0.624C176.157,55.115,174.943,54.824,173.721,54.636z"
     id="path3435"
     style="fill:#ff0000" />
  <path
     fill="#FFF"
     d="M150.415,47.449c0.306-0.797,0.951-0.487,1.317-1.021c-0.537,0.257-1.07,0.521-1.599,0.797L150.415,47.449z"
     id="path3437"
     style="fill:#ff0000" />
  <path
     fill="#FFF"
     d="M131.182,43.264c0.441,3.2-1.49,0.341,0.584,2.839C132.704,45.306,131.246,44.36,131.182,43.264z"
     id="path3439"
     style="fill:#ff0000" />
  <path
     fill="#FFF"
     d="M128.749,48.96c0.685-0.133,0.827-0.702,0.981-1.269C128.254,46.612,128.93,48.191,128.749,48.96z"
     id="path3441"
     style="fill:#ff0000" />
  <path
     fill="#FFF"
     d="M175.716,161.561c-0.559,0.201,0.173-0.065,0.808-0.285c0.185-0.084,0.365-0.174,0.545-0.271C176.626,161.213,176.173,161.393,175.716,161.561z"
     id="path3443"
     style="fill:#ff0000" />
  <path
     fill="#FFF"
     d="M178.684,160.156c0.45-0.322,0.875-0.678,1.262-1.072c-0.282,0.28-0.594,0.527-0.907,0.773c-1.134,0.686,0.101-0.174,0.442-0.533C177.784,160.645,178.922,159.896,178.684,160.156z"
     id="path3445"
     style="fill:#ff0000" />
  <path
     fill="#FFF"
     d="M181.141,158.032c0.746-0.751,0.414-0.649,0.101-0.345C181.24,157.782,180.803,158.32,181.141,158.032z"
     id="path3447"
     style="fill:#ff0000" />
  <path
     fill="#FFF"
     d="M166.008,98.809c0.139,0.445,0.363,0.83,0.135,1.164C166.639,99.777,166.866,99.509,166.008,98.809z"
     id="path3449"
     style="fill:#ff0000" />
  <path
     fill="#FFF"
     d="M166.143,99.973c-0.094,0.035-0.197,0.075-0.311,0.108c0.077,0.005,0.135,0.022,0.23,0.012C166.107,100.055,166.115,100.013,166.143,99.973z"
     id="path3451"
     style="fill:#ff0000" />
  <path
     fill="#FFF"
     d="M173.723,122.543c1.25,0.057,1.217,0.673,2.064,1.104l-0.711,0.935c0.956,0.476,1.154-0.199,2.124,0.065c-0.048,0.508,0.352,1.061,0.784,1.563c0.428,0.506,0.875,0.968,0.969,1.166c-0.292,0.424-0.832-0.089-1.191-0.097c0.977,0.846,1.867,0.459,2.575,1.824l-0.245,0.099c1.499,1.438,2.487,3.452,3.217,5.612c0.728,2.168,1.207,4.484,1.602,6.715c0.02-0.299,0.15-0.215,0.271-0.325c0.469,4.719-0.344,10.292-1.947,13.937c0.674-1.147,1.554-2.715,2.207-4.404c0.656-1.682,1.086-3.479,0.842-4.894c0.54-0.927,0.109-2.536,0.707-2.887c0.551-3.879-0.788-5.474-1.471-9.001c0.051-0.53,0.504-0.34,0.867-0.545c0.293,0.945,0.54,1.91,0.745,2.886l0.13-1.834c0.457,0.745,0.338,2.688,0.983,2.881c-0.42-1.308-0.614-2.999-0.933-4.638c-0.313-1.635-0.756-3.214-1.651-4.141c0.083,1.068,0.639,2.293,0.798,3.543c-0.168,0.591-0.215,1.449-0.624,1.451c-0.907-1.642-1.505-3.106-2.071-4.58c-0.57-1.467-1.113-2.955-2.117-4.383c-0.5-0.715-1.017-1.721-0.604-2.095c0.456,0.399,0.645-0.173,1.109,0.123c-1.031-0.862-1.812,0.757-2.557-0.757l1.838-0.785c-1.096,0.204-1.312-0.264-1.488-0.866c-0.18-0.589-0.321-1.34-1.242-1.414c0.388-0.856,1.324-0.528,1.949,0.269c-0.364-1.135-1.424-0.491-1.961-1.154c0.664-0.184,1.313-0.324,1.979-0.452c-0.989,0.12-1.194-0.235-1.153-0.774c0.041-0.533,0.324-1.241,0.356-1.672c-0.384,0.271-1.093,1.588-1.854,0.67c-0.201-0.523,0.332-0.692,0.435-0.974c-0.386,0.281-1.297,0.619-1.931,0.175c0.322-0.6,1.057-0.408,1.549-0.859c-0.489-0.401-0.973-0.618-0.965-1.346c-1.219-0.274-0.564,0.793-1.558,0.943c-1.024-1.412,1.354-1.963,1.769-3.505c1.633,0.099,3.094,1.112,4.047,1.405c-0.383-0.301-0.818-0.603-1.198-0.857l-1.136-0.712c0.628-0.49-0.459-2.326,1.064-1.935c-1.488-2.524-4.535-3.977-6.971-4.861c0.123,0.484,0.389,0.922,0.021,1.353c-1.334-0.321-0.615-1.189-0.483-1.919c-1.123-0.04-1.865,1.399-2.96,2.109c-0.939-2.251-1.59-1.638-2.046-4.352l-0.712,1.561c-0.379-1.845-1.725,0.395-2.371-1.132c0.105-0.376,0.73-0.541,1.258-0.701c-1.244-0.052-0.26-1.875-1.544-1.819c0.546-0.458,1.093-0.902,1.644-1.337c-0.82-0.423-2.26-0.528-1.127-1.863c-2.259,1.068-4.449-1.021-6.757-0.668l0.697-1.537c-0.833,0.735-1.707,0.32-2.606-0.029c-0.896-0.348-1.818-0.625-2.604,0.465l0.05-0.752c-0.883,0.526-1.753,1.085-2.604,1.682c-0.847-0.476,0.074-3.086-0.168-2.359c-2.166-0.159-3.812-0.36-5.099-1.641c-0.696,2.483-2.946,2.821-4.741,3.066c-2.143-0.554-4.486-0.685-6.855-0.27c-2.361,0.409-4.747,1.389-6.768,2.903c-2.025,1.503-3.633,3.531-4.586,5.679c-0.965,2.153-1.309,4.383-1.218,6.432c-0.177,0.523,0.448,1.507,1.33,2.494c0.876,0.994,2.005,1.988,2.683,2.742c1.123-1.016-0.476-1.674,0.004-2.937c1.174-0.571,4.375,0.692,6.336,1.31c-0.817-0.396-1.654-0.778-2.502-1.134c-0.754-1.03-0.326-1.024-0.018-0.983c0.325,0.025,0.531,0.078-0.354-1.096l3.496,2.659c-0.86-0.76-0.832-1.008-0.496-0.959c0.341,0.045,0.969,0.394,1.41,0.71c-0.694-0.73-1.373-1.479-2.025-2.236c1.46,0.739,2.052,1.08,3.723,3.086l-1.668-2.074c0.568,0.598,0.73,0.265,1.084,0.295c0.367,0.021,0.751,0.459,1.715,2.539c-0.262-0.572-0.824-1.83-0.529-1.717l1.096,2.313c-0.191-0.782-0.044-1.491,0.445-0.192c0.08,0.678,0.449,1.762,0.828,2.836c0.092-0.151-0.274-2.188-0.737-4.27c-0.437-2.079-0.948-4.259,0.12-4.693l0.215,1.569c0.078-0.604,0.181-1.21,0.308-1.807c0.277,0.606,0.533,1.211,0.772,1.815c0.162-2.738,1.136-2.744,2.115-2.406c1.002,0.342,1.998,0.99,3.016-0.283c0.759-0.357,1.163,2.517,2.459,2.283l0.355-2.103c0.623,2.211,4.172,4.118,3.586,8.542c1.443-1.318,0.039-0.402,0.567-1.876c2.575-1.603,1.669,1.33,2.211,2.494c1.513-0.656-0.612-0.824,0.542-2.033c1.241,1.675,2.368-1.789,4.137-0.026c-0.209,0.968-0.881,0.465-1.394,1.02c2.353-1.262,4.841,0.704,7.312,1.316c1.03,1.017,2.443,2.008,3.836,3.078c0.695,0.533,1.386,1.084,2.019,1.649c0.315,0.282,0.621,0.567,0.901,0.856l0.408,0.433c0.061,0.069,0.137,0.151,0.183,0.21l0.099,0.15l0.357-0.342c-0.026,0.619,0.359,0.803,0.847,1.028c0.483,0.214,1.063,0.458,1.336,0.992L173.723,122.543z"
     id="path3453"
     style="fill:#ff0000" />
  <path
     fill="#FFF"
     d="M189.012,138.173l0.59-0.329c-0.115-0.599-0.244-1.193-0.396-1.781C188.723,136.822,189.156,137.168,189.012,138.173z"
     id="path3455"
     style="fill:#ff0000" />
  <path
     fill="#FFF"
     d="M187.234,137.852l0.298,0.892c-0.024-0.485-0.052-0.972-0.095-1.454L187.234,137.852z"
     id="path3457"
     style="fill:#ff0000" />
  <path
     fill="#FFF"
     d="M181.855,116.703l0.002,0.285c0.889,0.757,1.722,1.591,2.49,2.482C183.587,118.484,182.755,117.555,181.855,116.703z"
     id="path3459"
     style="fill:#ff0000" />
  <path
     fill="#FFF"
     d="M166.799,97.519c0.704-0.482,1.059,0.142,1.664-0.088c-0.588-0.096-1.176-0.183-1.768-0.255L166.799,97.519z"
     id="path3461"
     style="fill:#ff0000" />
  <path
     fill="#FFF"
     d="M153.376,83.121c-1.46,2.882-1.418-0.568-1.138,2.666C153.465,85.667,152.807,84.06,153.376,83.121z"
     id="path3463"
     style="fill:#ff0000" />
  <path
     fill="#FFF"
     d="M148.132,86.417c0.638,0.28,1.08-0.105,1.53-0.483C149.063,84.205,148.719,85.887,148.132,86.417z"
     id="path3465"
     style="fill:#ff0000" />
  <path
     fill="#FFF"
     d="M93.39,191.291c-0.479-0.352,0.146,0.111,0.69,0.506c0.172,0.107,0.349,0.207,0.531,0.296C94.19,191.848,93.783,191.579,93.39,191.291z"
     id="path3467"
     style="fill:#ff0000" />
  <path
     fill="#FFF"
     d="M96.225,192.945c0.519,0.193,1.054,0.338,1.597,0.437c-0.389-0.081-0.772-0.188-1.15-0.312c-1.207-0.545,0.2-0.021,0.69,0.063c-1.033-0.295-1.217-0.378-1.204-0.325C96.172,192.85,96.395,192.988,96.225,192.945z"
     id="path3469"
     style="fill:#ff0000" />
  <path
     fill="#FFF"
     d="M99.365,193.773c1.042,0.187,0.77-0.022,0.341-0.114C99.628,193.717,98.938,193.654,99.365,193.773z"
     id="path3471"
     style="fill:#ff0000" />
  <path
     fill="#FFF"
     d="M139.654,147.799c-0.288,0.366-0.479,0.77-0.885,0.77C139.212,148.866,139.563,148.902,139.654,147.799z"
     id="path3473"
     style="fill:#ff0000" />
  <path
     fill="#FFF"
     d="M138.771,148.568c-0.082-0.059-0.174-0.12-0.266-0.194c0.039,0.065,0.059,0.124,0.121,0.196C138.684,148.586,138.723,148.568,138.771,148.568z"
     id="path3475"
     style="fill:#ff0000" />
  <path
     fill="#FFF"
     d="M124.443,167.583c0.664,1.063,0.134,1.385,0.257,2.327l-1.173-0.059c0.156,1.059,0.812,0.84,1.148,1.789c-0.451,0.248-0.672,0.892-0.848,1.531c-0.174,0.639-0.303,1.271-0.415,1.458c-0.519-0.002-0.394-0.733-0.595-1.038c-0.146,1.283,0.682,1.803-0.047,3.157l-0.221-0.146c-0.337,2.049-1.441,4.002-2.813,5.826c-1.375,1.824-3.016,3.531-4.633,5.117c0.256-0.154,0.265,0.003,0.424,0.04c-3.629,3.054-8.684,5.539-12.596,6.274c1.328-0.092,3.118-0.254,4.879-0.67c1.758-0.41,3.483-1.07,4.513-2.074c1.069-0.079,2.151-1.346,2.782-1.047c3.51-1.74,4.066-3.747,6.592-6.305c0.466-0.259,0.564,0.223,0.939,0.406c-0.615,0.777-1.269,1.529-1.959,2.247l1.586-0.931c-0.355,0.799-2.027,1.797-1.818,2.441c0.841-1.087,2.123-2.205,3.297-3.393c1.169-1.184,2.225-2.439,2.48-3.703c-0.834,0.673-1.529,1.823-2.471,2.661c-0.582,0.194-1.318,0.642-1.551,0.306c0.844-1.674,1.709-3,2.607-4.299c0.883-1.301,1.809-2.587,2.416-4.225c0.305-0.818,0.849-1.811,1.387-1.683c-0.07,0.604,0.508,0.433,0.525,0.985c0.131-1.339-1.65-1.066-0.82-2.537l1.686,1.07c-0.785-0.785-0.521-1.229-0.126-1.717c0.39-0.479,0.92-1.022,0.465-1.824c0.927-0.164,1.185,0.795,0.884,1.761c0.728-0.942-0.401-1.454-0.158-2.271c0.52,0.44,1.017,0.9,1.49,1.375c-0.658-0.748-0.479-1.117-0.013-1.391c0.464-0.268,1.211-0.434,1.578-0.65c-0.442-0.162-1.924-0.002-1.601-1.149c0.322-0.462,0.762-0.119,1.052-0.192c-0.457-0.158-1.241-0.72-1.238-1.494c0.674-0.072,0.937,0.643,1.587,0.793c0.049-0.633-0.041-1.151,0.561-1.558c-0.461-1.161-0.974-0.019-1.657-0.751c0.584-1.645,2.385,0.008,3.891-0.521c0.839,1.397,0.839,3.181,1.132,4.133c0.026-0.487,0.036-1.016,0.026-1.475l-0.056-1.341c0.76,0.24,1.658-1.694,2.199-0.215c1.238-2.656,0.713-5.989,0.065-8.498c-0.329,0.374-0.54,0.842-1.103,0.783c-0.49-1.282,0.631-1.183,1.309-1.485c-0.602-0.947-2.208-0.747-3.413-1.248c1.325-2.049,0.452-2.236,2.433-4.148l-1.689,0.296c1.309-1.355-1.301-1.198-0.407-2.597c0.37-0.125,0.86,0.299,1.29,0.643c-0.661-1.057,1.398-1.273,0.627-2.303c0.686,0.19,1.361,0.392,2.031,0.599c-0.114-0.915-0.842-2.161,0.898-1.981c-2.156-1.26-1.672-4.248-3.27-5.951l1.661-0.293c-1.077-0.271-1.229-1.229-1.449-2.168c-0.22-0.936-0.513-1.853-1.854-1.883l0.647-0.385c-0.935-0.432-1.887-0.832-2.86-1.197c-0.086-0.968,2.588-1.685,1.851-1.474c-1.093-1.875-1.856-3.347-1.529-5.132c-2.442,0.828-3.991-0.835-5.21-2.178c-0.755-2.08-1.973-4.088-3.654-5.808c-1.673-1.717-3.83-3.13-6.222-3.938c-2.386-0.82-4.967-1-7.276-0.57c-2.322,0.422-4.355,1.398-5.994,2.634c-0.532,0.149-0.989,1.222-1.306,2.507c-0.324,1.284-0.506,2.778-0.746,3.762c1.473,0.354,1.111-1.336,2.424-1.655c1.136,0.646,1.901,4.001,2.504,5.966c-0.137-0.898-0.295-1.805-0.481-2.703c0.424-1.206,0.661-0.849,0.802-0.57c0.164,0.283,0.236,0.481,0.704-0.912l-0.216,4.39c0.141-1.142,0.359-1.257,0.512-0.952c0.154,0.307,0.223,1.021,0.211,1.564c0.209-0.986,0.443-1.971,0.699-2.938c0.215,1.624,0.27,2.303-0.439,4.816l0.769-2.551c-0.173,0.809,0.194,0.754,0.369,1.063c0.188,0.314,0.046,0.879-1.124,2.852c0.324-0.541,1.043-1.717,1.115-1.408l-1.287,2.212c0.535-0.601,1.203-0.88,0.41,0.257c-0.514,0.449-1.198,1.368-1.869,2.288c0.176-0.011,1.648-1.466,3.103-3.022c1.47-1.535,2.978-3.189,3.939-2.555l-1.173,1.064c0.543-0.278,1.1-0.535,1.662-0.769c-0.342,0.571-0.696,1.124-1.061,1.664c2.352-1.414,2.905-0.615,3.182,0.384c0.285,1.02,0.313,2.208,1.938,2.326c0.724,0.424-1.418,2.383-0.493,3.32l1.936-0.896c-1.471,1.764-1.037,5.77-5.017,7.787c1.903,0.445,0.354-0.195,1.868-0.593c2.777,1.218-0.152,2.129-0.807,3.233c1.396,0.877,0.332-0.972,1.982-0.703c-0.68,1.972,2.814,0.941,2.361,3.396c-0.916,0.375-0.883-0.463-1.629-0.57c2.369,1.227,2.158,4.391,3.048,6.773c-0.254,1.425-0.272,3.15-0.369,4.904c-0.046,0.876-0.11,1.757-0.219,2.599c-0.054,0.42-0.117,0.832-0.196,1.228l-0.127,0.582l-0.068,0.269l-0.064,0.166l0.482,0.103c-0.526,0.328-0.463,0.752-0.369,1.279c0.097,0.521,0.219,1.139-0.063,1.663L124.443,167.583z"
     id="path3477"
     style="fill:#ff0000" />
  <path
     fill="#FFF"
     d="M120.197,189.033l0.604,0.299c0.432-0.432,0.848-0.876,1.247-1.334C121.148,188.031,121.107,188.584,120.197,189.033z"
     id="path3479"
     style="fill:#ff0000" />
  <path
     fill="#FFF"
     d="M119.457,187.385c-0.184,0.254-0.372,0.504-0.566,0.749c0.389-0.291,0.771-0.592,1.147-0.897L119.457,187.385z"
     id="path3481"
     style="fill:#ff0000" />
  <path
     fill="#FFF"
     d="M133.857,170.99l-0.232,0.162c-0.122,1.16-0.34,2.318-0.643,3.459C133.367,173.425,133.664,172.213,133.857,170.99z"
     id="path3483"
     style="fill:#ff0000" />
  <path
     fill="#FFF"
     d="M141.165,147.723c0.796,0.309,0.481,0.953,1.015,1.322c-0.254-0.539-0.515-1.072-0.789-1.604L141.165,147.723z"
     id="path3485"
     style="fill:#ff0000" />
  <path
     fill="#FFF"
     d="M145.449,128.509c-3.202,0.427-0.333-1.489-2.842,0.569C143.398,130.021,144.354,128.568,145.449,128.509z"
     id="path3487"
     style="fill:#ff0000" />
  <path
     fill="#FFF"
     d="M139.766,126.048c0.131,0.685,0.698,0.831,1.266,0.988C142.117,125.564,140.534,126.232,139.766,126.048z"
     id="path3489"
     style="fill:#ff0000" />
  <path
     fill="#FFF"
     d="M18.708,139.046c0.08-0.589-0.029,0.183-0.114,0.849c-0.012,0.203-0.015,0.404-0.006,0.607C18.602,140.016,18.643,139.527,18.708,139.046z"
     id="path3491"
     style="fill:#ff0000" />
  <path
     fill="#FFF"
     d="M18.609,142.327c0.08,0.548,0.208,1.087,0.381,1.61c-0.115-0.381-0.205-0.769-0.276-1.16c-0.099-1.319,0.112,0.168,0.273,0.638c-0.235-1.048-0.25-1.248-0.29-1.213C18.669,142.234,18.654,142.497,18.609,142.327z"
     id="path3493"
     style="fill:#ff0000" />
  <path
     fill="#FFF"
     d="M19.383,145.48c0.335,1.004,0.389,0.666,0.264,0.244C19.56,145.686,19.283,145.049,19.383,145.48z"
     id="path3495"
     style="fill:#ff0000" />
  <path
     fill="#FFF"
     d="M79.026,158.886c-0.459-0.079-0.904-0.054-1.098-0.409C77.877,159.008,78.013,159.332,79.026,158.886z"
     id="path3497"
     style="fill:#ff0000" />
  <path
     fill="#FFF"
     d="M77.929,158.477c0.011-0.1,0.022-0.209,0.044-0.324c-0.039,0.064-0.082,0.109-0.116,0.201C77.871,158.408,77.905,158.436,77.929,158.477z"
     id="path3499"
     style="fill:#ff0000" />
  <path
     fill="#FFF"
     d="M54.379,154.984c-0.617,1.092-1.153,0.779-1.921,1.338l-0.51-1.059c-0.855,0.645-0.35,1.114-1.023,1.865c-0.432-0.277-1.103-0.164-1.75-0.013c-0.645,0.153-1.26,0.342-1.479,0.333c-0.245-0.456,0.458-0.696,0.628-1.018c-1.197,0.482-1.257,1.459-2.796,1.467l0.024-0.264c-1.962,0.686-4.206,0.646-6.462,0.316c-2.261-0.336-4.544-0.961-6.709-1.622c0.258,0.151,0.123,0.231,0.167,0.392c-4.417-1.728-9.016-4.979-11.533-8.063c0.714,1.122,1.713,2.616,2.921,3.966c1.201,1.348,2.606,2.548,3.979,2.971c0.581,0.901,2.21,1.248,2.25,1.942c3.206,2.251,5.236,1.78,8.688,2.774c0.45,0.287,0.074,0.604,0.092,1.021c-0.976-0.168-1.949-0.382-2.91-0.646l1.576,0.947c-0.872,0.069-2.548-0.922-3.014-0.43c1.356,0.218,2.953,0.811,4.556,1.273c1.598,0.461,3.207,0.787,4.438,0.407c-0.99-0.409-2.333-0.472-3.519-0.897c-0.449-0.418-1.194-0.851-1.009-1.215c1.873-0.061,3.452,0.066,5.022,0.233c1.564,0.155,3.137,0.353,4.866,0.103c0.864-0.123,1.995-0.119,2.141,0.416c-0.564,0.226-0.138,0.651-0.615,0.932c1.239-0.523,0.148-1.958,1.836-1.934l-0.135,1.992c0.315-1.064,0.831-1.047,1.447-0.932c0.607,0.111,1.339,0.318,1.825-0.464c0.587,0.733-0.131,1.419-1.124,1.616c1.177,0.188,1.085-1.049,1.918-1.226c-0.139,0.668-0.305,1.324-0.495,1.968c0.341-0.937,0.753-0.955,1.215-0.676c0.457,0.28,0.959,0.856,1.326,1.076c-0.069-0.468-0.917-1.691,0.246-1.956c0.56,0.063,0.468,0.611,0.671,0.831c-0.078-0.479,0.039-1.434,0.721-1.802c0.386,0.557-0.116,1.129,0.063,1.772c0.579-0.261,0.992-0.588,1.635-0.253c0.799-0.961-0.45-0.862-0.133-1.815c1.723-0.271,1.133,2.099,2.319,3.168c-0.828,1.404-2.394,2.257-3.089,2.969c0.441-0.208,0.909-0.451,1.309-0.68l1.15-0.689c0.152,0.782,2.281,0.646,1.24,1.828c2.925-0.182,5.602-2.236,7.496-4.005c-0.487-0.11-0.998-0.072-1.215-0.595c0.892-1.043,1.339-0.01,1.93,0.439c0.545-0.982-0.4-2.297-0.536-3.595c2.434,0.185,2.182-0.673,4.807,0.151l-1.068-1.342c1.816,0.5,0.431-1.716,2.085-1.6c0.287,0.265,0.149,0.896,0.053,1.439c0.612-1.086,1.789,0.619,2.322-0.551c0.16,0.693,0.308,1.383,0.446,2.07c0.749-0.538,1.496-1.771,2.171-0.157c0.074-2.497,2.93-3.501,3.663-5.718l1.052,1.318c-0.277-1.075,0.491-1.666,1.21-2.31c0.717-0.641,1.382-1.336,0.768-2.53l0.647,0.387c-0.068-1.025-0.171-2.055-0.315-3.086c0.808-0.537,2.716,1.469,2.178,0.922c1.124-1.856,2.051-3.231,3.776-3.797c-1.896-1.75-1.175-3.905-0.579-5.616c1.466-1.658,2.647-3.688,3.353-5.986c0.708-2.29,0.918-4.86,0.485-7.349c-0.419-2.487-1.496-4.84-2.978-6.664c-1.48-1.837-3.311-3.156-5.178-4.005c-0.387-0.396-1.546-0.285-2.826,0.053c-1.283,0.329-2.682,0.884-3.661,1.144c0.393,1.463,1.706,0.338,2.614,1.338c-0.024,1.307-2.604,3.582-4.043,5.052c0.725-0.55,1.444-1.121,2.145-1.716c1.261-0.204,1.061,0.175,0.885,0.432c-0.171,0.279-0.312,0.438,1.137,0.184l-3.958,1.908c1.068-0.423,1.276-0.283,1.08-0.007c-0.194,0.282-0.791,0.685-1.272,0.935c0.966-0.289,1.941-0.553,2.914-0.791c-1.324,0.967-1.894,1.338-4.441,1.916l2.607-0.543c-0.791,0.233-0.568,0.53-0.756,0.832c-0.187,0.315-0.75,0.461-3.041,0.375c0.63,0.025,2.006,0.096,1.77,0.308l-2.558-0.074c0.784,0.185,1.349,0.638-0.029,0.483c-0.64-0.235-1.774-0.398-2.903-0.549c0.094,0.149,2.075,0.748,4.139,1.28c2.049,0.556,4.225,1.089,4.126,2.238l-1.496-0.521c0.504,0.344,0.996,0.709,1.47,1.094c-0.666-0.027-1.321-0.074-1.969-0.137c2.366,1.389,1.929,2.258,1.184,2.978c-0.758,0.737-1.789,1.332-1.116,2.815c-0.026,0.838-2.771-0.105-3.152,1.153l1.712,1.272c-2.253-0.449-5.563,1.848-9.238-0.684c0.519,1.885,0.34,0.217,1.414,1.357c0.258,3.021-1.943,0.884-3.227,0.838c-0.102,1.646,1.013-0.172,1.566,1.406c-2.056,0.345,0.519,2.922-1.854,3.697c-0.768-0.627-0.015-0.996-0.276-1.705c0.055,2.67-2.825,3.994-4.493,5.916c-1.373,0.459-2.898,1.268-4.484,2.021c-0.792,0.378-1.595,0.742-2.386,1.05c-0.396,0.153-0.788,0.295-1.172,0.415l-0.571,0.166l-0.27,0.066l-0.176,0.022l0.142,0.474c-0.541-0.307-0.881-0.047-1.301,0.287c-0.411,0.334-0.895,0.735-1.492,0.739L54.379,154.984z"
     id="path3501"
     style="fill:#ff0000" />
  <path
     fill="#FFF"
     d="M33.508,161.511l0.026,0.673c0.585,0.174,1.174,0.326,1.768,0.459C34.843,161.867,34.338,162.096,33.508,161.511z"
     id="path3503"
     style="fill:#ff0000" />
  <path
     fill="#FFF"
     d="M34.602,160.072c-0.31-0.04-0.62-0.086-0.929-0.139c0.442,0.2,0.889,0.393,1.337,0.576L34.602,160.072z"
     id="path3505"
     style="fill:#ff0000" />
  <path
     fill="#FFF"
     d="M55.887,164.883l-0.255-0.127c-1.077,0.447-2.198,0.811-3.343,1.09C53.514,165.615,54.72,165.297,55.887,164.883z"
     id="path3507"
     style="fill:#ff0000" />
  <path
     fill="#FFF"
     d="M79.817,160.176c0.109,0.848-0.607,0.881-0.677,1.522c0.352-0.48,0.696-0.966,1.03-1.459L79.817,160.176z"
     id="path3509"
     style="fill:#ff0000" />
  <path
     fill="#FFF"
     d="M98.74,154.753c-1.905-2.608,1.15-1.005-1.859-2.226C96.431,153.676,98.163,153.818,98.74,154.753z"
     id="path3511"
     style="fill:#ff0000" />
  <path
     fill="#FFF"
     d="M98.184,148.584c-0.539,0.439-0.396,1.012-0.264,1.583C99.732,150.419,98.39,149.348,98.184,148.584z"
     id="path3513"
     style="fill:#ff0000" />
  <path
     fill="#FFF"
     d="M22.157,61.749c0.527-0.274-0.162,0.087-0.763,0.388c-0.171,0.108-0.339,0.221-0.504,0.339C21.3,62.213,21.725,61.975,22.157,61.749z"
     id="path3515"
     style="fill:#ff0000" />
  <path
     fill="#FFF"
     d="M19.399,63.53c-0.404,0.378-0.779,0.786-1.109,1.229c0.243-0.315,0.519-0.602,0.797-0.886c1.033-0.829-0.076,0.185-0.369,0.587C20.227,62.928,19.197,63.82,19.399,63.53z"
     id="path3517"
     style="fill:#ff0000" />
  <path
     fill="#FFF"
     d="M17.242,65.958c-0.64,0.843-0.325,0.698-0.054,0.354C17.177,66.22,17.539,65.628,17.242,65.958z"
     id="path3519"
     style="fill:#ff0000" />
  <path
     fill="#FFF"
     d="M40.024,122.682c-0.195-0.423-0.469-0.774-0.286-1.137C39.272,121.805,39.082,122.1,40.024,122.682z"
     id="path3521"
     style="fill:#ff0000" />
  <path
     fill="#FFF"
     d="M39.739,121.545c0.088-0.047,0.185-0.1,0.293-0.146c-0.077,0.004-0.137-0.006-0.231,0.019C39.762,121.459,39.76,121.502,39.739,121.545z"
     id="path3523"
     style="fill:#ff0000" />
  <path
     fill="#FFF"
     d="M29.259,100.167c-1.248,0.109-1.295-0.508-2.192-0.822l0.582-1.02c-1.01-0.345-1.119,0.349-2.114,0.213c-0.021-0.508-0.488-1.004-0.984-1.446c-0.49-0.446-0.995-0.845-1.113-1.029c0.233-0.458,0.837-0.021,1.195-0.061c-1.08-0.71-1.912-0.209-2.793-1.47l0.23-0.13c-1.675-1.228-2.919-3.096-3.927-5.142c-1.005-2.053-1.786-4.287-2.469-6.446c0.021,0.298-0.121,0.233-0.227,0.358c-1.084-4.616-1.011-10.248,0.1-14.071c-0.517,1.227-1.184,2.896-1.609,4.656c-0.429,1.753-0.619,3.591-0.191,4.962c-0.414,0.989,0.225,2.528-0.322,2.955c-0.036,3.917,1.501,5.322,2.642,8.729c0.018,0.533-0.456,0.403-0.79,0.654c-0.415-0.899-0.786-1.822-1.117-2.763l0.113,1.835c-0.552-0.679-0.688-2.621-1.354-2.726c0.588,1.241,1.003,2.892,1.535,4.474c0.523,1.579,1.17,3.087,2.18,3.887c-0.223-1.048-0.934-2.189-1.256-3.407c0.09-0.607,0.022-1.465,0.428-1.521c1.115,1.507,1.899,2.882,2.656,4.269c0.757,1.378,1.491,2.782,2.674,4.066c0.591,0.643,1.234,1.573,0.873,1.998c-0.504-0.337-0.615,0.256-1.117,0.023c1.137,0.721,1.696-0.988,2.634,0.415l-1.718,1.019c1.058-0.346,1.333,0.089,1.588,0.664c0.255,0.561,0.495,1.286,1.417,1.239c-0.271,0.899-1.243,0.697-1.968-0.009c0.512,1.078,1.478,0.3,2.096,0.886c-0.633,0.269-1.259,0.494-1.901,0.708c0.965-0.25,1.216,0.075,1.246,0.616c0.028,0.535-0.16,1.273-0.134,1.703c0.344-0.318,0.875-1.718,1.75-0.906c0.269,0.492-0.237,0.729-0.302,1.021c0.345-0.328,1.205-0.783,1.891-0.426c-0.241,0.636-0.994,0.542-1.422,1.055c0.538,0.336,1.044,0.486,1.133,1.207c1.244,0.113,0.455-0.859,1.419-1.14c1.202,1.265-1.085,2.124-1.293,3.707c-1.63,0.116-3.211-0.696-4.195-0.862c0.419,0.247,0.891,0.489,1.301,0.693l1.22,0.557c-0.558,0.568,0.76,2.245-0.802,2.059c1.808,2.307,5.019,3.346,7.549,3.901c-0.185-0.463-0.506-0.862-0.2-1.337c1.365,0.143,0.768,1.098,0.732,1.839c1.118-0.108,1.665-1.632,2.657-2.479c1.228,2.109,1.792,1.414,2.601,4.046l0.5-1.642c0.618,1.779,1.658-0.617,2.5,0.812c-0.056,0.386-0.655,0.632-1.155,0.86c1.241-0.112,0.503,1.824,1.77,1.6c-0.48,0.525-0.964,1.038-1.453,1.542c0.868,0.312,2.309,0.228,1.361,1.698c2.099-1.354,4.545,0.429,6.787-0.225l-0.49,1.613c0.729-0.839,1.65-0.541,2.588-0.313c0.934,0.228,1.884,0.381,2.519-0.804l0.049,0.753c0.807-0.639,1.595-1.307,2.363-2.01c0.9,0.36,0.331,3.069,0.477,2.316c2.166-0.127,3.824-0.145,5.268,0.957c0.365-2.555,2.55-3.185,4.298-3.664c2.197,0.269,4.539,0.091,6.832-0.633c2.288-0.715,4.524-2,6.327-3.768c1.811-1.757,3.137-3.979,3.8-6.232c0.674-2.261,0.722-4.517,0.362-6.535c0.107-0.543-0.642-1.437-1.646-2.298c-0.999-0.871-2.249-1.708-3.018-2.367c-0.982,1.153,0.69,1.596,0.381,2.912c-1.09,0.721-4.428-0.113-6.454-0.465c0.863,0.286,1.743,0.553,2.629,0.793c0.884,0.924,0.458,0.974,0.147,0.975c-0.327,0.018-0.537-0.01,0.494,1.04l-3.816-2.179c0.954,0.642,0.958,0.891,0.618,0.887c-0.342,0-1.011-0.264-1.491-0.52c0.785,0.633,1.556,1.286,2.303,1.952c-1.545-0.543-2.176-0.801-4.097-2.571l1.927,1.838c-0.642-0.519-0.76-0.166-1.114-0.149c-0.366,0.026-0.804-0.356-2.033-2.292c0.335,0.534,1.059,1.707,0.751,1.632l-1.39-2.149c0.292,0.75,0.24,1.473-0.416,0.25c-0.168-0.661-0.678-1.688-1.195-2.702c-0.069,0.162,0.562,2.133,1.293,4.134c0.704,2.004,1.5,4.099,0.496,4.669l-0.418-1.527c0.002,0.61-0.02,1.223-0.068,1.83c-0.354-0.563-0.688-1.13-1.004-1.699c0.198,2.736-0.765,2.869-1.78,2.664c-1.038-0.205-2.111-0.719-2.952,0.678c-0.705,0.453-1.484-2.342-2.738-1.941l-0.077,2.133c-0.908-2.111-4.676-3.535-4.677-7.997c-1.258,1.497,0.014,0.403-0.316,1.934c-2.342,1.927-1.83-1.1-2.52-2.182c-1.413,0.85,0.716,0.736-0.27,2.086c-1.451-1.498-2.113,2.084-4.096,0.57c0.08-0.986,0.812-0.576,1.247-1.193c-2.167,1.559-4.892-0.063-7.421-0.347c-1.156-0.871-2.687-1.668-4.207-2.547c-0.76-0.438-1.517-0.893-2.218-1.37c-0.351-0.239-0.69-0.481-1.006-0.73l-0.46-0.375c-0.07-0.061-0.156-0.132-0.209-0.185l-0.118-0.137l-0.309,0.385c-0.055-0.616-0.463-0.747-0.975-0.907c-0.508-0.149-1.115-0.315-1.455-0.808L29.259,100.167z"
     id="path3525"
     style="fill:#ff0000" />
  <path
     fill="#FFF"
     d="M12.05,86.68l-0.542,0.404c0.192,0.579,0.398,1.152,0.626,1.715C12.513,87.981,12.037,87.696,12.05,86.68z"
     id="path3527"
     style="fill:#ff0000" />
  <path
     fill="#FFF"
     d="M13.853,86.765l-0.412-0.843c0.088,0.478,0.178,0.955,0.284,1.429L13.853,86.765z"
     id="path3529"
     style="fill:#ff0000" />
  <path
     fill="#FFF"
     d="M21.962,107.023l-0.04-0.282c-0.979-0.634-1.914-1.351-2.794-2.135C20.013,105.485,20.96,106.298,21.962,107.023z"
     id="path3531"
     style="fill:#ff0000" />
  <path
     fill="#FFF"
     d="M39.411,124.064c-0.635,0.569-1.069-0.002-1.639,0.306c0.595,0.019,1.19,0.026,1.786,0.021L39.411,124.064z"
     id="path3533"
     style="fill:#ff0000" />
  <path
     fill="#FFF"
     d="M54.608,136.574c1.069-3.049,1.48,0.377,0.778-2.793C54.186,134.063,55.05,135.568,54.608,136.574z"
     id="path3535"
     style="fill:#ff0000" />
  <path
     fill="#FFF"
     d="M59.374,132.618c-0.669-0.194-1.057,0.246-1.453,0.68C58.74,134.934,58.861,133.221,59.374,132.618z"
     id="path3537"
     style="fill:#ff0000" />
</svg>
